<?xml version="1.0" encoding="UTF-8" standalone="no"?>
<!DOCTYPE svg PUBLIC "-//W3C//DTD SVG 1.1//EN" "http://www.w3.org/Graphics/SVG/1.1/DTD/svg11.dtd">
<svg width="100%" height="100%" viewBox="0 0 500 500" version="1.1" xmlns="http://www.w3.org/2000/svg" xmlns:xlink="http://www.w3.org/1999/xlink" xml:space="preserve" xmlns:serif="http://www.serif.com/" style="fill-rule:evenodd;clip-rule:evenodd;stroke-linejoin:round;stroke-miterlimit:2;">
    <g transform="matrix(1.12669,0,0,1.12669,-12.3271,-1356.05)">
        <path d="M259.607,1301.53C268.772,1324.46 276.092,1347.6 281.58,1370.88C282.578,1370.47 283.57,1370.04 284.571,1369.64C322.156,1354.44 362.074,1342.35 403.816,1333.44L346.94,1234.93L227.354,1234.93C239.785,1256.7 250.583,1278.94 259.607,1301.53Z" style="fill:rgb(255,138,115);fill-rule:nonzero;"/>
    </g>
    <g transform="matrix(1.12669,0,0,1.12669,-12.3271,-1356.05)">
        <path d="M178.161,1456.15C203.076,1466.14 229.706,1474.32 257.9,1480.6C258.191,1458.28 256.663,1435.92 253.329,1413.58C227.374,1426.02 202.333,1440.2 178.161,1456.15Z" style="fill:rgb(198,20,20);fill-rule:nonzero;"/>
    </g>
    <g transform="matrix(1.12669,0,0,1.12669,-12.3271,-1356.05)">
        <path d="M413.606,1360.79C367.199,1370.04 323.264,1383.33 281.626,1400.86C286.375,1429.27 288.384,1457.84 287.649,1486.44C307.245,1489.77 327.515,1492.24 348.417,1493.83C368.882,1495.38 389.53,1496.04 410.282,1495.87L450.939,1425.45L413.606,1360.79Z" style="fill:rgb(198,20,20);fill-rule:nonzero;"/>
    </g>
    <g transform="matrix(1.12669,0,0,1.12669,-12.3271,-1356.05)">
        <path d="M247.651,1383.08C242.382,1359.52 235.086,1336.02 225.75,1312.66C215.122,1286.06 201.943,1260.09 186.446,1234.93L120.941,1234.93L43.803,1368.53C72.274,1397.7 106.563,1422.24 145.927,1441.75C178.171,1419.19 212.205,1399.56 247.651,1383.08Z" style="fill:rgb(244,82,63);fill-rule:nonzero;"/>
    </g>
    <g transform="matrix(1.12669,0,0,1.12669,-12.3271,-1356.05)">
        <path d="M346.152,1523.74C325.495,1522.18 305.392,1519.78 285.869,1516.56C282.745,1550.06 275.84,1583.26 265.229,1615.98L340.941,1615.98L393.017,1525.78C377.221,1525.58 361.585,1524.91 346.152,1523.74Z" style="fill:rgb(145,0,0);fill-rule:nonzero;"/>
    </g>
    <g transform="matrix(1.12669,0,0,1.12669,-12.3271,-1356.05)">
        <path d="M256.376,1510.98C218.132,1502.77 182.337,1491.23 149.241,1476.4C123.995,1495.11 99.735,1515.9 76.379,1538.79L120.941,1615.98L233.626,1615.98C245.717,1581.33 253.315,1546.24 256.376,1510.98Z" style="fill:rgb(145,0,0);fill-rule:nonzero;"/>
    </g>
    <g transform="matrix(1.12669,0,0,1.12669,-12.3271,-1356.05)">
        <path d="M28.244,1395.48L10.941,1425.45L60.843,1511.89C79.649,1493.84 99.026,1477.07 119.034,1461.55C84.597,1443.05 54.276,1420.96 28.244,1395.48Z" style="fill:rgb(145,0,0);fill-rule:nonzero;"/>
    </g>
</svg>
